:SAMPLES-PER-SECOND 30
:FULLY-SPECIFIED
:DEGREES
290
root  -3.94515 35.8498 5.49431 -176.435 -32.1449 174.824
RightUpLeg  -6.9655 -11.7184 -26.5005
RightLeg  50.296 -8.5741 -11.2082
RightFoot  -7.40467 -0.825186 22.3841
RightToes  -5.8209e-011 0 -3.6325e-017
Spine  18.423 6.41257 1.84179
Spine1  12.2658 5.07833 5.92162
HEad  -34.9837 -40.8744 19.1905
LeftShoulder1  1.79136 -4.30609 -16.2116
LeftArm  5.32473 9.43879 -54.8855
LeftForeArm  10.8735 -64.5397 -23.4884
LeftHand  -1.82226 -1.38931 30.7083
RightShoulder  1.68976 2.98997 19.6719
RightArm  20.5196 2.54799 59.2381
RightForeArm  -55.0638 65.8271 30.047
RightHand  -1.17517 -0.51442 -26.2093
LeftUpLeg  -28.7573 -2.30266 9.54377
LeftLeg  40.7023 -9.70499 -8.4441
LeftFoot  -14.7289 -0.329435 -14.0599
LeftToes  -3.91115e-011 -2.2622e-010 9.51032e-012
291
root  -3.41073 35.7081 5.41393 -177.013 -34.4947 174.873
RightUpLeg  -4.82013 -9.26248 -26.8435
RightLeg  50.6797 -11.2922 -14.7015
RightFoot  -5.19152 -1.12664 20.0476
RightToes  -5.8209e-011 0 -3.6325e-017
Spine  18.1236 7.77126 5.13827
Spine1  13.8676 7.4948 4.38026
HEad  -36.0866 -47.4167 20.6617
LeftShoulder1  1.77756 -4.35388 -15.8515
LeftArm  2.27337 8.24237 -57.6783
LeftForeArm  6.68093 -61.2181 -20.3796
LeftHand  -2.26674 -1.78638 35.8569
RightShoulder  2.03507 4.47147 19.1084
RightArm  27.6053 7.71644 60.7703
RightForeArm  -71.1922 65.4222 29.1366
RightHand  -2.24458 1.80765 -36.0722
LeftUpLeg  -29.2654 -3.28769 10.4089
LeftLeg  40.7895 -10.97 -9.60431
LeftFoot  -13.5832 -0.213153 -14.9909
LeftToes  -3.91115e-011 -2.2622e-010 9.51032e-012
292
root  -2.79445 35.9098 5.35817 -176.472 -36.1281 174.409
RightUpLeg  -3.33558 -8.84624 -27.6362
RightLeg  48.1423 -13.3265 -15.7122
RightFoot  -4.72589 -1.12019 18.6593
RightToes  -5.8209e-011 0 -3.6325e-017
Spine  18.0326 8.78048 9.27417
Spine1  13.9227 10.1689 1.63684
HEad  -35.6906 -52.4812 20.9673
LeftShoulder1  1.62319 -3.81545 -15.3697
LeftArm  1.06288 9.84326 -58.9128
LeftForeArm  4.76967 -61.8868 -21.3281
LeftHand  -2.54865 -2.07874 38.5429
RightShoulder  2.04751 5.15098 17.0438
RightArm  31.5869 12.6149 62.4029
RightForeArm  -82.1641 67.3774 31.5414
RightHand  -1.27339 -1.30545 -35.2441
LeftUpLeg  -28.9199 -3.22177 10.6856
LeftLeg  37.6582 -11.8887 -9.32275
LeftFoot  -11.3953 0.0595951 -15.954
LeftToes  -3.91115e-011 -2.2622e-010 9.51032e-012
293
root  -2.06523 36.3666 5.3819 -175.046 -38.0779 173.602
RightUpLeg  -2.25582 -9.5682 -28.4073
RightLeg  43.1569 -15.801 -15.5463
RightFoot  -3.87436 -1.18695 17.7218
RightToes  -5.8209e-011 0 -3.6325e-017
Spine  18.0862 9.14227 13.5781
Spine1  12.6579 12.2113 -1.16877
HEad  -35.5731 -55.2441 21.2389
LeftShoulder1  1.52049 -3.40663 -15.1765
LeftArm  1.52803 13.2562 -57.7646
LeftForeArm  6.24896 -64.5508 -24.1564
LeftHand  -2.5152 -2.13958 37.735
RightShoulder  1.8163 4.83285 15.0059
RightArm  30.8763 17.3524 62.3809
RightForeArm  -79.2171 70.9932 38.716
RightHand  -1.19711 -1.6065 -34.3535
LeftUpLeg  -28.2612 -2.59132 10.3703
LeftLeg  31.8033 -13.3909 -8.45016
LeftFoot  -7.1443 0.656269 -16.6447
LeftToes  -3.91115e-011 -2.2622e-010 9.51032e-012
294
root  -1.15344 36.8557 5.46486 -173.37 -40.4903 172.916
RightUpLeg  -1.57753 -9.93641 -28.3474
RightLeg  37.299 -18.7054 -14.914
RightFoot  -0.306212 -1.8943 19.1994
RightToes  -5.8209e-011 0 -3.6325e-017
Spine  18.179 8.81611 17.072
Spine1  10.5779 12.9725 -3.24005
HEad  -35.238 -55.9931 20.9003
LeftShoulder1  1.46974 -3.2421 -14.939
LeftArm  2.22246 18.2393 -55.3089
LeftForeArm  10.9714 -67.2701 -27.4276
LeftHand  -2.36677 -2.19861 35.4245
RightShoulder  1.44884 3.87945 12.606
RightArm  23.0884 22.6429 61.9251
RightForeArm  -70.3059 74.0098 48.2506
RightHand  -5.09367 5.68547 -48.8128
LeftUpLeg  -27.8814 -2.21789 10.1134
LeftLeg  24.6249 -14.4447 -6.83956
LeftFoot  -0.690487 1.68957 -17.8552
LeftToes  -3.91115e-011 -2.2622e-010 9.51032e-012
